# Blender v2.79 (sub 0) OBJ File: ''
# www.blender.org
mtllib Sun.mtl
o Circle_Circle.001
v 0.000000 0.000000 0.000000
v 0.000000 0.000000 -1.000000
v 1.000000 0.000000 -0.000001
v 0.980785 0.000000 -0.195091
v 0.923879 0.000000 -0.382684
v 0.831469 0.000000 -0.555571
v 0.707106 0.000000 -0.707108
v 0.555569 0.000000 -0.831470
v 0.382682 0.000000 -0.923880
v 0.195089 0.000000 -0.980786
v 0.963896 0.000000 -0.765682
v 1.106963 0.000000 -0.444001
v 1.056845 0.000000 -0.571788
v 1.747015 0.000000 -0.842470
v 1.797132 0.000000 -0.714683
v 1.871217 0.000000 -0.144716
v 1.857763 0.000000 -0.281319
v 1.119981 0.000000 -0.208653
v 1.133435 0.000000 -0.072050
v 0.872142 0.000000 -0.867773
v 1.423531 0.000000 -1.363326
v 1.515284 0.000000 -1.261234
v 0.667738 0.000000 -0.994929
v 0.547537 0.000000 -1.061209
v 0.905512 0.000000 -1.710406
v 1.025712 0.000000 -1.644126
v 0.349169 0.000000 -1.145814
v 0.216226 0.000000 -1.179980
v 0.400755 0.000000 -1.897999
v 0.533699 0.000000 -1.863833
v 0.000000 0.010000 0.000000
v 0.000000 0.010000 -1.000000
v 1.000000 0.010000 -0.000001
v 0.980785 0.010000 -0.195091
v 0.923879 0.010000 -0.382684
v 0.831469 0.010000 -0.555571
v 0.707106 0.010000 -0.707108
v 0.555569 0.010000 -0.831470
v 0.382682 0.010000 -0.923880
v 0.195089 0.010000 -0.980786
v 0.872142 0.010000 -0.867773
v 0.963896 0.010000 -0.765682
v 0.547537 0.010000 -1.061209
v 0.667738 0.010000 -0.994929
v 0.216226 0.010000 -1.179980
v 0.349169 0.010000 -1.145814
v 1.423531 0.010000 -1.363326
v 1.515284 0.010000 -1.261234
v 1.747015 0.010000 -0.842470
v 1.797132 0.010000 -0.714683
v 1.106963 0.010000 -0.444001
v 1.133435 0.010000 -0.072050
v 1.871217 0.010000 -0.144716
v 0.905512 0.010000 -1.710406
v 1.025712 0.010000 -1.644126
v 1.119981 0.010000 -0.208653
v 1.857763 0.010000 -0.281319
v 1.056845 0.010000 -0.571788
v 0.400755 0.010000 -1.897999
v 0.533699 0.010000 -1.863833
vn 0.0000 -1.0000 0.0000
vn 0.0000 1.0000 -0.0000
vn -1.0000 0.0000 0.0000
vn 0.8757 0.0000 0.4829
vn 0.2903 0.0000 -0.9569
vn 0.0000 0.0000 1.0000
vn -0.9952 0.0000 0.0980
vn 0.9952 0.0000 -0.0980
vn 0.4829 0.0000 -0.8757
vn 0.0980 0.0000 -0.9952
vn -0.7438 0.0000 0.6684
vn 0.9569 0.0000 -0.2903
vn -0.0980 0.0000 -0.9952
vn -0.4829 0.0000 0.8757
vn -0.9310 0.0000 0.3651
vn -0.2489 0.0000 0.9685
vn 0.8819 0.0000 -0.4714
vn -0.3651 0.0000 -0.9310
vn 0.7438 0.0000 -0.6684
vn -0.9685 0.0000 -0.2489
vn 0.9310 0.0000 -0.3651
vn 0.7730 0.0000 -0.6344
vn 0.9685 0.0000 0.2489
vn 0.3651 0.0000 0.9310
vn 0.2489 0.0000 -0.9685
vn 0.0980 0.0000 0.9952
vn 0.6344 0.0000 -0.7730
vn -0.8757 0.0000 -0.4829
vn -0.6684 0.0000 -0.7438
vn 0.4714 0.0000 -0.8819
vn 0.6684 0.0000 0.7438
usemtl None
s off
f 1//1 4//1 3//1
f 1//1 5//1 4//1
f 1//1 6//1 5//1
f 1//1 7//1 6//1
f 1//1 8//1 7//1
f 1//1 9//1 8//1
f 1//1 10//1 9//1
f 1//1 2//1 10//1
f 18//1 17//1 16//1 19//1
f 13//1 14//1 15//1 12//1
f 20//1 21//1 22//1 11//1
f 24//1 25//1 26//1 23//1
f 28//1 29//1 30//1 27//1
f 31//2 33//2 34//2
f 31//2 34//2 35//2
f 31//2 35//2 36//2
f 31//2 36//2 37//2
f 31//2 37//2 38//2
f 31//2 38//2 39//2
f 31//2 39//2 40//2
f 31//2 40//2 32//2
f 56//2 52//2 53//2 57//2
f 58//2 51//2 50//2 49//2
f 41//2 42//2 48//2 47//2
f 43//2 44//2 55//2 54//2
f 45//2 46//2 60//2 59//2
f 2//3 1//3 31//3 32//3
f 23//4 26//4 55//4 44//4
f 9//5 10//5 40//5 39//5
f 1//6 3//6 33//6 31//6
f 18//7 19//7 52//7 56//7
f 3//8 4//8 34//8 33//8
f 26//9 25//9 54//9 55//9
f 10//10 2//10 32//10 40//10
f 16//8 17//8 57//8 53//8
f 20//11 11//11 42//11 41//11
f 4//12 5//12 35//12 34//12
f 17//13 18//13 56//13 57//13
f 24//14 23//14 44//14 43//14
f 13//15 12//15 51//15 58//15
f 28//16 27//16 46//16 45//16
f 5//17 6//17 36//17 35//17
f 14//18 13//18 58//18 49//18
f 22//19 21//19 47//19 48//19
f 29//20 28//20 45//20 59//20
f 15//21 14//21 49//21 50//21
f 6//22 7//22 37//22 36//22
f 27//23 30//23 60//23 46//23
f 12//24 15//24 50//24 51//24
f 30//25 29//25 59//25 60//25
f 19//26 16//26 53//26 52//26
f 7//27 8//27 38//27 37//27
f 25//28 24//28 43//28 54//28
f 21//29 20//29 41//29 47//29
f 8//30 9//30 39//30 38//30
f 11//31 22//31 48//31 42//31
